<svg t="1741324823319" class="icon" viewBox="0 0 1024 1024" version="1.1" xmlns="http://www.w3.org/2000/svg" p-id="881" width="32" height="32"><path d="M512 943.36a433.3056 433.3056 0 1 1 368.128-204.8 25.6 25.6 0 1 1-43.4176-27.0336 382.5152 382.5152 0 1 0-71.168 84.2752 25.6 25.6 0 0 1 33.9968 38.2976A432.896 432.896 0 0 1 512 943.36z" fill="#0769E1" p-id="882"></path><path d="M512 689.9712a25.6 25.6 0 0 1-25.6-25.6v-40.192a111.36 111.36 0 0 1 68.5568-103.2192 115.9168 115.9168 0 0 0 72.704-115.0976 117.248 117.248 0 0 0-108.2368-108.1856 115.8144 115.8144 0 0 0-123.2896 115.6096 25.6 25.6 0 0 1-51.2 0 167.6288 167.6288 0 0 1 52.6848-121.7536A167.0656 167.0656 0 1 1 574.0032 568.32a59.8528 59.8528 0 0 0-36.4032 55.8592v40.192a25.6 25.6 0 0 1-25.6 25.6z" fill="#0769E1" p-id="883"></path><path d="M512 755.456m-30.2592 0a30.2592 30.2592 0 1 0 60.5184 0 30.2592 30.2592 0 1 0-60.5184 0Z" fill="#0769E1" p-id="884"></path></svg>